<?xml version="1.0" encoding="utf-8"?>
<!-- Generator: Adobe Illustrator 24.3.0, SVG Export Plug-In . SVG Version: 6.00 Build 0)  -->
<svg version="1.1" id="Layer_1" xmlns="http://www.w3.org/2000/svg" xmlns:xlink="http://www.w3.org/1999/xlink" x="0px" y="0px"
	 viewBox="0 0 524.74 316.64" style="enable-background:new 0 0 524.74 316.64;" xml:space="preserve">
<style type="text/css">
	.st0{fill:#5C2F10;}
	.st1{fill:#9EA8AA;}
</style>
<g>
	<g>
		<path class="st0" d="M423.39,159.31c-4.23-41.31-31.9-68.8-68.82-84.54c-65.29-27.81-158.98-20.05-218.98,17.56
			c-26.48,16.61-46.74,46.01-26.55,76.54c23.64,35.74,60.79,55.63,98.85,72.76c37.26,16.77,77.7,32.85,118.99,34.48
			c22.79,0.9,53.05-13.07,64.23-33.45C412.87,219.35,426.78,192.48,423.39,159.31z"/>
		<path class="st1" d="M293.42,266.34c-33.18-8.76-64.53-21.48-95.7-35.81c-28.61-13.16-54.58-30.16-75.68-53.73
			c-10.81-12.06-15.95-25.05-15.62-41.24c0.53-26.86,32.02-41.82,52.66-51.41c61.24-28.49,145.74-29.36,206.36,0.63
			c31.1,15.38,47.9,42.88,53.22,75.97c4.88,30.4-9.47,57.49-28.47,80.12c-0.31,0.1-0.58,0.22-0.7,0.35
			C362.04,270.36,331.4,276.37,293.42,266.34z"/>
		<path class="st1" d="M418.67,160.74c-0.36-2.21-0.78-4.43-1.26-6.61c-14.27,3.86-28.49,7.94-42.71,12.01
			c-29.28,8.35-60.39,19.42-90.95,21.56c-13.18,0.93-26.06-0.26-38.72-2.81c-49.66-4.85-93.31-32.91-138.1-54.12
			c-0.28,1.54-0.48,3.12-0.51,4.77c-0.34,16.2,4.81,29.18,15.62,41.24c21.1,23.57,47.08,40.57,75.68,53.73
			c31.17,14.33,62.51,27.05,95.7,35.81c37.98,10.04,68.61,4.02,96.08-25.12c0.12-0.13,0.39-0.26,0.7-0.35
			C409.2,218.23,423.55,191.14,418.67,160.74z"/>
		<path class="st1" d="M418.67,160.74c-5.33-33.08-22.13-60.59-53.22-75.97c-41.15-20.36-93.27-26.47-141.69-19.39
			c21.23,0.86,42.45,4.53,61.9,10.21c10.13,2.96,26.07,6.84,30.32,18.25c3.45,9.31-1.17,18.6-7.01,25.9
			c-24.97,31.26-60.48,57.06-98.43,69.57c-18.51,6.1-37.7,10.61-56.55,15.97c13.59,9.82,28.26,18.12,43.75,25.24
			c31.17,14.33,62.51,27.05,95.7,35.81c37.98,10.04,68.61,4.02,96.08-25.12c0.12-0.13,0.39-0.26,0.7-0.35
			C409.2,218.23,423.55,191.14,418.67,160.74z"/>
	</g>
	<path class="st1" d="M223.43,89.63c0.09-7.54-8.62-10.44-14.77-11.55c-11.82-2.14-29.91,0.7-40.78,8.74
		c-0.96,0.45-1.93,0.89-2.86,1.4c-12.31,6.84-2.46,16.9,7.59,18.36c13.06,1.91,26.92-1.02,38.96-6.07
		C215.52,98.83,223.37,94.86,223.43,89.63z"/>
</g>
</svg>
